<?xml version="1.0" encoding="utf-8"?>
<!-- Generator: Adobe Illustrator 15.0.0, SVG Export Plug-In . SVG Version: 6.00 Build 0)  -->
<!DOCTYPE svg PUBLIC "-//W3C//DTD SVG 1.1//EN" "http://www.w3.org/Graphics/SVG/1.1/DTD/svg11.dtd">
<svg version="1.1" id="Layer_1" xmlns="http://www.w3.org/2000/svg" xmlns:xlink="http://www.w3.org/1999/xlink" x="0px" y="0px"
	 width="155px" height="54px" viewBox="0 0 155 54" enable-background="new 0 0 155 54" xml:space="preserve">
<g>
	<path fill="#428BCA" d="M34.559,34.207h-8.051V22.113h28.441c0.047,1.055,0.082,1.84,0.105,2.355
		c0.023,0.516,0.035,0.973,0.035,1.371c0,2.953-0.281,5.648-0.844,8.086s-1.383,4.594-2.461,6.469
		c-2.625,4.406-6.012,7.775-10.16,10.107S32.766,54,27.492,54c-3.891,0-7.506-0.65-10.846-1.951s-6.299-3.217-8.877-5.748
		c-2.555-2.531-4.488-5.426-5.801-8.684C0.656,34.359,0,30.82,0,27c0-3.844,0.662-7.4,1.986-10.67
		c1.324-3.27,3.252-6.146,5.783-8.631c2.554-2.508,5.507-4.418,8.859-5.73C19.98,0.656,23.602,0,27.492,0
		c5.273,0,9.961,1.154,14.063,3.463c4.101,2.309,7.453,5.689,10.055,10.143l-16.488,6.117c-0.867-1.43-1.911-2.496-3.129-3.199
		c-1.219-0.703-2.614-1.055-4.184-1.055c-2.742,0-4.928,1.043-6.557,3.129c-1.629,2.086-2.443,4.887-2.443,8.402
		c0,3.633,0.82,6.451,2.461,8.455c1.64,2.004,3.96,3.006,6.961,3.006c1.781,0,3.229-0.375,4.342-1.125
		C33.685,36.586,34.348,35.543,34.559,34.207z"/>
	<path fill="#428BCA" d="M67.219,52.629V18H55.918V1.16h41.094V18H85.711v34.629H67.219z"/>
	<path fill="#428BCA" d="M134.754,34.207h-8.051V22.113h28.441c0.047,1.055,0.082,1.84,0.105,2.355
		c0.023,0.516,0.035,0.973,0.035,1.371c0,2.953-0.281,5.648-0.844,8.086s-1.383,4.594-2.461,6.469
		c-2.625,4.406-6.012,7.775-10.16,10.107S132.961,54,127.688,54c-3.891,0-7.506-0.65-10.846-1.951s-6.299-3.217-8.877-5.748
		c-2.555-2.531-4.488-5.426-5.801-8.684c-1.313-3.258-1.969-6.797-1.969-10.617c0-3.844,0.662-7.4,1.986-10.67
		c1.324-3.27,3.252-6.146,5.783-8.631c2.554-2.508,5.507-4.418,8.859-5.73C120.176,0.656,123.797,0,127.688,0
		c5.273,0,9.961,1.154,14.063,3.463c4.101,2.309,7.453,5.689,10.055,10.143l-16.488,6.117c-0.867-1.43-1.911-2.496-3.129-3.199
		c-1.219-0.703-2.614-1.055-4.184-1.055c-2.742,0-4.928,1.043-6.557,3.129c-1.629,2.086-2.443,4.887-2.443,8.402
		c0,3.633,0.82,6.451,2.461,8.455c1.64,2.004,3.96,3.006,6.961,3.006c1.781,0,3.229-0.375,4.342-1.125
		C133.88,36.586,134.543,35.543,134.754,34.207z"/>
</g>
</svg>
