<?xml version="1.0" encoding="utf-8"?>
<!-- Generator: Adobe Illustrator 15.0.0, SVG Export Plug-In . SVG Version: 6.00 Build 0)  -->
<!DOCTYPE svg PUBLIC "-//W3C//DTD SVG 1.1//EN" "http://www.w3.org/Graphics/SVG/1.1/DTD/svg11.dtd">
<svg version="1.1" id="Layer_1" xmlns="http://www.w3.org/2000/svg" xmlns:xlink="http://www.w3.org/1999/xlink" x="0px" y="0px"
	 width="494.5px" height="54px" viewBox="0 0 494.5 54" enable-background="new 0 0 494.5 54" xml:space="preserve">
<g>
	<path fill="#428BCA" d="M34.559,34.207h-8.051V22.113h28.441c0.047,1.055,0.082,1.84,0.105,2.355
		c0.023,0.516,0.035,0.973,0.035,1.371c0,2.953-0.281,5.648-0.844,8.086s-1.383,4.594-2.461,6.469
		c-2.625,4.406-6.012,7.775-10.16,10.107S32.766,54,27.492,54c-3.891,0-7.506-0.65-10.846-1.951s-6.299-3.217-8.877-5.748
		c-2.555-2.531-4.488-5.426-5.801-8.684C0.656,34.359,0,30.82,0,27c0-3.844,0.662-7.4,1.986-10.67
		c1.324-3.27,3.252-6.146,5.783-8.631c2.554-2.508,5.507-4.418,8.859-5.73C19.98,0.656,23.602,0,27.492,0
		c5.273,0,9.961,1.154,14.063,3.463c4.101,2.309,7.453,5.689,10.055,10.143l-16.488,6.117c-0.867-1.43-1.911-2.496-3.129-3.199
		c-1.219-0.703-2.614-1.055-4.184-1.055c-2.742,0-4.928,1.043-6.557,3.129c-1.629,2.086-2.443,4.887-2.443,8.402
		c0,3.633,0.82,6.451,2.461,8.455c1.64,2.004,3.96,3.006,6.961,3.006c1.781,0,3.229-0.375,4.342-1.125
		C33.685,36.586,34.348,35.543,34.559,34.207z"/>
	<path fill="#428BCA" d="M67.219,52.629V18H55.918V1.16h41.094V18H85.711v34.629H67.219z"/>
	<path fill="#FFFFFF" d="M134.754,34.207h-8.051V22.113h28.441c0.047,1.055,0.082,1.84,0.105,2.355
		c0.023,0.516,0.035,0.973,0.035,1.371c0,2.953-0.281,5.648-0.844,8.086s-1.383,4.594-2.461,6.469
		c-2.625,4.406-6.012,7.775-10.16,10.107S132.961,54,127.688,54c-3.891,0-7.506-0.65-10.846-1.951s-6.299-3.217-8.877-5.748
		c-2.555-2.531-4.488-5.426-5.801-8.684c-1.313-3.258-1.969-6.797-1.969-10.617c0-3.844,0.662-7.4,1.986-10.67
		c1.324-3.27,3.252-6.146,5.783-8.631c2.554-2.508,5.507-4.418,8.859-5.73C120.176,0.656,123.797,0,127.688,0
		c5.273,0,9.961,1.154,14.063,3.463c4.101,2.309,7.453,5.689,10.055,10.143l-16.488,6.117c-0.867-1.43-1.911-2.496-3.129-3.199
		c-1.219-0.703-2.614-1.055-4.184-1.055c-2.742,0-4.928,1.043-6.557,3.129c-1.629,2.086-2.443,4.887-2.443,8.402
		c0,3.633,0.82,6.451,2.461,8.455c1.64,2.004,3.96,3.006,6.961,3.006c1.781,0,3.229-0.375,4.342-1.125
		C133.88,36.586,134.543,35.543,134.754,34.207z"/>
	<path fill="#FFFFFF" d="M160.035,52.629V1.16h23.273c6.75,0,11.906,1.488,15.469,4.465c3.563,2.977,5.344,7.266,5.344,12.867
		c0,3.656-0.896,6.668-2.689,9.035s-4.213,3.75-7.26,4.148l13.746,20.953h-20.742l-9-16.98v16.98H160.035z M178.176,14.414v10.055
		h2.883c1.758,0,3.111-0.428,4.061-1.283s1.424-2.08,1.424-3.674c0-1.641-0.475-2.9-1.424-3.779s-2.303-1.318-4.061-1.318H178.176z"
		/>
	<path fill="#FFFFFF" d="M209.754,52.629L228.105,1.16h20.602l18,51.469h-19.898l-1.652-6.469h-13.957l-1.582,6.469H209.754z
		 M234.293,33.926h7.699l-1.582-5.836c-0.773-2.953-1.301-5.227-1.582-6.82s-0.457-3.094-0.527-4.5h-0.316
		c-0.07,1.406-0.246,2.906-0.527,4.5s-0.809,3.867-1.582,6.82L234.293,33.926z"/>
	<path fill="#FFFFFF" d="M269.555,52.629V1.16h22.113c7.781,0,13.471,1.5,17.068,4.5s5.396,7.758,5.396,14.273
		c0,6.07-1.617,10.506-4.852,13.307s-8.367,4.201-15.398,4.201h-5.801v15.188H269.555z M288.152,15.469v8.578h2.883
		c1.758,0,3.105-0.369,4.043-1.107s1.406-1.787,1.406-3.146s-0.48-2.42-1.441-3.182s-2.297-1.143-4.008-1.143H288.152z"/>
	<path fill="#FFFFFF" d="M320.531,52.629V1.16h18.527v17.121h11.285V1.16h18.492v51.469h-18.492V34.488h-11.285v18.141H320.531z"/>
	<path fill="#FFFFFF" d="M376.926,52.629V1.16h18.809v51.469H376.926z"/>
	<path fill="#FFFFFF" d="M453.711,40.395c-2.625,4.406-6.012,7.775-10.16,10.107S434.691,54,429.418,54
		c-3.891,0-7.506-0.65-10.846-1.951s-6.299-3.217-8.877-5.748c-2.555-2.531-4.488-5.426-5.801-8.684S401.926,30.82,401.926,27
		c0-3.844,0.662-7.4,1.986-10.67s3.252-6.146,5.783-8.631c2.555-2.508,5.508-4.418,8.859-5.73S425.527,0,429.418,0
		c5.273,0,9.961,1.154,14.063,3.463s7.453,5.689,10.055,10.143l-16.488,6.117c-0.867-1.43-1.91-2.496-3.129-3.199
		s-2.613-1.055-4.184-1.055c-2.742,0-4.928,1.043-6.557,3.129s-2.443,4.887-2.443,8.402c0,3.633,0.82,6.451,2.461,8.455
		s3.961,3.006,6.961,3.006c1.781,0,3.229-0.375,4.342-1.125s1.84-1.513,2.556-2.96L453.711,40.395z"/>
	<path fill="#FFFFFF" d="M455.09,48.234l5.906-14.414c2.648,1.852,5.01,3.205,7.084,4.061s4.014,1.283,5.818,1.283
		c1.266,0,2.262-0.24,2.988-0.721s1.09-1.131,1.09-1.951c0-1.43-1.816-2.52-5.449-3.27c-1.172-0.258-2.086-0.457-2.742-0.598
		c-3.844-0.938-6.785-2.602-8.824-4.992s-3.059-5.367-3.059-8.93c0-5.531,1.98-10.031,5.941-13.5S472.996,0,479.418,0
		c2.953,0,5.859,0.387,8.719,1.16s5.742,1.945,8.648,3.516l-5.625,13.465c-1.781-1.313-3.568-2.314-5.361-3.006
		s-3.533-1.037-5.221-1.037c-1.289,0-2.285,0.217-2.988,0.65s-1.055,1.037-1.055,1.811c0,1.453,2.566,2.73,7.699,3.832
		c0.82,0.188,1.453,0.328,1.898,0.422c3.539,0.797,6.328,2.426,8.367,4.887s3.059,5.438,3.059,8.93
		c0,5.695-2.057,10.348-6.17,13.957S481.926,54,475.34,54c-3.375,0-6.75-0.48-10.125-1.441S458.465,50.156,455.09,48.234z"/>
</g>
</svg>
