<?xml version="1.0" encoding="UTF-8" standalone="no"?>
<!-- Created with Inkscape (http://www.inkscape.org/) -->

<svg
   xmlns:dc="http://purl.org/dc/elements/1.1/"
   xmlns:cc="http://creativecommons.org/ns#"
   xmlns:rdf="http://www.w3.org/1999/02/22-rdf-syntax-ns#"
   xmlns:svg="http://www.w3.org/2000/svg"
   xmlns="http://www.w3.org/2000/svg"
   xmlns:sodipodi="http://sodipodi.sourceforge.net/DTD/sodipodi-0.dtd"
   xmlns:inkscape="http://www.inkscape.org/namespaces/inkscape"
   id="svg2"
   version="1.1"
   inkscape:version="0.48.4 r9939"
   width="298.75"
   height="47.5"
   xml:space="preserve"
   sodipodi:docname="gtg-white.EPS"><metadata
     id="metadata8"><rdf:RDF><cc:Work
         rdf:about=""><dc:format>image/svg+xml</dc:format><dc:type
           rdf:resource="http://purl.org/dc/dcmitype/StillImage" /><dc:title></dc:title></cc:Work></rdf:RDF></metadata><defs
     id="defs6" /><sodipodi:namedview
     pagecolor="#ffffff"
     bordercolor="#666666"
     borderopacity="1"
     objecttolerance="10"
     gridtolerance="10"
     guidetolerance="10"
     inkscape:pageopacity="0"
     inkscape:pageshadow="2"
     inkscape:window-width="640"
     inkscape:window-height="480"
     id="namedview4"
     showgrid="false"
     inkscape:zoom="1.1380753"
     inkscape:cx="149.375"
     inkscape:cy="23.75"
     inkscape:window-x="49"
     inkscape:window-y="24"
     inkscape:window-maximized="0"
     inkscape:current-layer="g10" /><g
     id="g10"
     inkscape:groupmode="layer"
     inkscape:label="ink_ext_XXXXXX"
     transform="matrix(1.25,0,0,-1.25,0,47.5)"><g
       id="g12"
       transform="scale(0.1,0.1)"><path
         d="m 221.777,315.641 -34.668,-32.453 c -7.254,12.523 -16.226,21.886 -26.921,28.085 -10.696,6.2 -21.883,9.301 -33.563,9.301 -18.934,0 -35.375,-7.191 -49.3281,-21.566 -13.9531,-14.375 -20.9297,-31.332 -20.9297,-50.871 0,-20.77 6.9766,-38.371 20.9297,-52.809 13.9531,-14.441 30.7661,-21.66 50.4331,-21.66 10.696,0 20.993,2.703 30.891,8.109 9.899,5.411 17.859,15.543 23.879,30.411 l -57.402,0 0,47.207 111.785,0 0,-31.364 c 0,-16.113 -5.531,-33.426 -16.594,-51.933 -11.062,-18.512 -25.625,-32.043 -43.695,-40.59 -18.067,-8.551 -36.317,-12.824 -54.754,-12.824 -33.4337,0 -61.6408,12.117 -84.6252,36.343 -22.9843,24.231 -34.47652,54.18 -34.47652,89.844 0,33.824 11.83202,62.727 35.49612,86.711 23.6601,23.984 52.1445,35.973 85.4536,35.973 42.527,0 75.226,-18.637 98.089,-55.914"
         style="fill:#5595d6;fill-opacity:1;fill-rule:nonzero;stroke:none"
         id="path14" /><path
         d="m 239.992,368.156 162.77,0 0,-51.359 -55.516,0 0,-190.715 -52.117,0 0,190.715 -55.137,0 0,51.359"
         style="fill:#5595d6;fill-opacity:1;fill-rule:nonzero;stroke:none"
         id="path16" /><path
         d="m 624.34,315.641 -34.668,-32.453 c -7.254,12.523 -16.227,21.886 -26.922,28.085 -10.695,6.2 -21.883,9.301 -33.562,9.301 -18.934,0 -35.375,-7.191 -49.329,-21.566 -13.953,-14.375 -20.929,-31.332 -20.929,-50.871 0,-20.77 6.976,-38.371 20.929,-52.809 13.954,-14.441 30.766,-21.66 50.434,-21.66 10.695,0 20.992,2.703 30.891,8.109 9.898,5.411 17.859,15.543 23.879,30.411 l -57.403,0 0,47.207 111.785,0 0,-31.364 c 0,-16.113 -5.531,-33.426 -16.593,-51.933 -11.063,-18.512 -25.625,-32.043 -43.696,-40.59 -18.066,-8.551 -36.32,-12.824 -54.754,-12.824 -33.433,0 -61.64,12.117 -84.625,36.343 -22.984,24.231 -34.476,54.18 -34.476,89.844 0,33.824 11.832,62.727 35.492,86.711 23.664,23.984 52.148,35.973 85.457,35.973 42.531,0 75.227,-18.637 98.09,-55.914"
         style="fill:#ffffff;fill-opacity:1;fill-rule:nonzero;stroke:none"
         id="path18" /><path
         d="m 658.418,368.156 79.859,0 c 24.282,0 43.477,-6.386 57.586,-19.16 14.114,-12.777 21.168,-30.031 21.168,-51.773 0,-12.407 -3.242,-25.305 -9.726,-38.692 -6.481,-13.39 -18.43,-23.894 -35.848,-31.508 l 67.856,-100.941 -59.782,0 -62.957,93.66 -6.043,0 0,-93.66 -52.113,0 0,242.074 z m 52.113,-43.051 0,-63.066 11.438,0 c 27.625,0 41.437,11.125 41.437,33.379 0,9.094 -3.597,16.316 -10.781,21.664 -7.187,5.348 -17.156,8.023 -29.906,8.023 l -12.188,0"
         style="fill:#ffffff;fill-opacity:1;fill-rule:evenodd;stroke:none"
         id="path20" /><path
         d="m 944.301,368.156 40.808,0 98.541,-242.074 -52.51,0 -19.37,47.586 -92.899,0 -19.008,-47.586 -52.246,0 96.684,242.074 z m 20.574,-79.285 -28.516,-71.394 57.579,0 -29.063,71.394"
         style="fill:#ffffff;fill-opacity:1;fill-rule:evenodd;stroke:none"
         id="path22" /><path
         d="m 1102.24,368.156 82.8,0 c 22.25,0 40.19,-6.5 53.84,-19.5 13.64,-12.996 20.46,-30.097 20.46,-51.289 0,-13.926 -3.34,-27.144 -10.02,-39.652 -6.67,-12.508 -16.76,-21.84 -30.24,-28.004 -13.48,-6.156 -25.01,-9.363 -34.57,-9.609 l -30.15,-0.739 0,-93.281 -52.12,0 0,242.074 z m 51.37,-43.804 0,-61.938 20.03,0 c 8.62,0 16,3.137 22.13,9.402 6.13,6.266 9.19,13.7 9.19,22.305 0,9.828 -3.46,17.449 -10.38,22.856 -6.92,5.406 -16.75,8.109 -29.5,8.109 l -11.47,-0.734"
         style="fill:#ffffff;fill-opacity:1;fill-rule:evenodd;stroke:none"
         id="path24" /><path
         d="m 1281.55,368.156 52.12,0 0,-93.277 86.1,0 0,93.277 52.12,0 0,-242.074 -52.12,0 0,96.305 -86.1,0 0,-96.305 -52.12,0 0,242.074"
         style="fill:#ffffff;fill-opacity:1;fill-rule:nonzero;stroke:none"
         id="path26" /><path
         d="m 1500.23,126.082 52.1172,0 0,242.074 -52.1172,0 0,-242.074 z"
         style="fill:#ffffff;fill-opacity:1;fill-rule:nonzero;stroke:none"
         id="path28" /><path
         d="m 1762.91,355.316 0,-58.914 c -26.18,15.61 -49.11,23.414 -68.78,23.414 -19.67,0 -35.4,-6.753 -47.2,-20.269 -11.8,-13.516 -17.7,-31.699 -17.7,-54.559 0,-21.621 6.2,-38.914 18.62,-51.879 12.41,-12.961 29.01,-19.441 49.79,-19.441 18.19,0 39.95,7.426 65.27,22.281 l 0,-58.914 c -28.39,-9.566 -52.05,-14.351 -70.98,-14.351 -32.58,0 -60.24,11.961 -82.98,35.882 -22.74,23.922 -34.11,53.102 -34.11,87.539 0,35.051 11.59,64.723 34.76,89.016 23.17,24.289 51.35,36.434 84.54,36.434 21.39,0 44.31,-5.41 68.77,-16.239"
         style="fill:#ffffff;fill-opacity:1;fill-rule:nonzero;stroke:none"
         id="path30" /><path
         d="m 1934.99,346.348 -32.45,-35.594 c -17.23,10.07 -29.62,15.109 -37.18,15.109 -5.83,0 -10.85,-2.175 -15.06,-6.523 -4.21,-4.348 -6.32,-9.524 -6.32,-15.527 0,-11.879 10.82,-22.215 32.45,-31.004 15.86,-6.813 27.89,-12.954 36.09,-18.43 8.21,-5.477 15.07,-13.074 20.6,-22.793 5.53,-9.723 8.29,-20.242 8.29,-31.566 0,-20.793 -8.41,-38.883 -25.23,-54.262 -16.83,-15.383 -36.7,-23.074 -59.63,-23.074 -25.14,0 -49.98,11.839 -74.51,35.519 l 34.3,40.012 c 15.46,-15.86 29.93,-23.793 43.41,-23.793 6.31,0 12.37,2.762 18.18,8.281 5.82,5.52 8.72,11.309 8.72,17.371 0,12.492 -13.33,23.664 -40.01,33.516 -15.24,5.683 -26.1,10.953 -32.57,15.808 -6.47,4.86 -11.92,11.926 -16.34,21.207 -4.41,9.282 -6.62,18.778 -6.62,28.489 0,21.511 7.03,38.965 21.08,52.363 14.06,13.398 32.43,20.098 55.11,20.098 26.88,0 49.44,-8.403 67.69,-25.207"
         style="fill:#ffffff;fill-opacity:1;fill-rule:nonzero;stroke:none"
         id="path32" /><path
         d="m 1948.07,152.426 c 0,8.125 2.88,15.082 8.65,20.871 5.77,5.785 12.7,8.68 20.8,8.68 8.1,0 15.04,-2.895 20.8,-8.68 5.77,-5.789 8.66,-12.746 8.66,-20.871 0,-8.004 -2.89,-14.895 -8.66,-20.684 -5.76,-5.785 -12.7,-8.679 -20.8,-8.679 -8.1,0 -15.03,2.894 -20.8,8.679 -5.77,5.789 -8.65,12.68 -8.65,20.684"
         style="fill:#ffffff;fill-opacity:1;fill-rule:nonzero;stroke:none"
         id="path34" /><path
         d="m 2031.37,368.156 82.65,0 c 35.29,0 63.69,-11.121 85.22,-33.371 21.52,-22.246 32.28,-51.562 32.28,-87.941 0,-36.504 -11.1,-65.754 -33.3,-87.758 -22.19,-22 -51.74,-33.004 -88.64,-33.004 l -78.21,0 0,242.074 z m 52.11,-45.695 0,-149.547 20.74,0 c 21.48,0 39.12,5.84 52.94,17.52 13.82,11.679 20.73,31.164 20.73,58.453 0,15.855 -3.33,29.898 -9.99,42.133 -6.67,12.23 -16.32,20.531 -28.97,24.894 -12.66,4.363 -24.72,6.547 -36.19,6.547 l -19.26,0"
         style="fill:#ffffff;fill-opacity:1;fill-rule:evenodd;stroke:none"
         id="path36" /><path
         d="m 2253.44,368.156 136.33,0 0,-47.961 -84.21,0 0,-48.715 84.21,0 0,-47.207 -84.21,0 0,-50.226 84.21,0 0,-47.965 -136.33,0 0,242.074"
         style="fill:#ffffff;fill-opacity:1;fill-rule:nonzero;stroke:none"
         id="path38" /><path
         d="m 76.8359,87.9102 -7.789,0 0,-7.9883 -0.1992,0 c -1.6524,3.0898 -4.0039,5.3984 -7.0547,6.9179 -3.0508,1.5157 -6.2032,2.2735 -9.4532,2.2696 C 44.7813,89.043 38.7695,86.8555 34.3008,82.5508 29.8359,78.25 27.5508,72.2344 27.4453,64.5156 27.5625,57.4766 29.875,51.75 34.3789,47.3438 c 4.5,-4.4102 10.4883,-6.6836 17.9609,-6.8204 3.1719,-0.0156 6.2344,0.6836 9.1915,2.0977 2.957,1.4062 5.3945,3.6055 7.3164,6.5898 l 0.1992,0 0,-5.9921 c 0.039,-3.3516 -0.4531,-6.4532 -1.4805,-9.3047 -1.0234,-2.8516 -2.8281,-5.1524 -5.4101,-6.9024 -2.5821,-1.7539 -6.1915,-2.6523 -10.8165,-2.7031 -3.5703,0.0078 -6.7578,0.6953 -9.5664,2.0664 -2.8046,1.3672 -5.4218,3.3828 -7.8359,6.0391 l -5.5937,-6.4024 c 3.2734,-3.2109 6.7929,-5.5039 10.5546,-6.8789 3.7657,-1.375 7.9102,-2.0469 12.4414,-2.0117 8.2383,0.0312 14.5391,2.2695 18.8985,6.7109 4.3594,4.4375 6.5586,10.9024 6.5976,19.3868 l 0,44.6914 z M 35.832,64.5156 c 0.0743,5.0157 1.6016,9.1407 4.5782,12.3789 2.9765,3.2383 6.9531,4.9141 11.9296,5.0274 5.0274,-0.086 9.0508,-1.6914 12.0665,-4.8125 3.0156,-3.125 4.5625,-7.2578 4.6406,-12.3946 C 69.0195,60.0664 67.5742,56.1094 64.707,52.8359 61.8398,49.5625 57.7188,47.8555 52.3398,47.707 47.668,47.8164 43.7813,49.4297 40.6719,52.5469 37.5625,55.668 35.9531,59.6563 35.832,64.5156"
         style="fill:#ffffff;fill-opacity:1;fill-rule:evenodd;stroke:none"
         id="path40" /><path
         d="m 130.297,41.1211 7.785,0 0,22.8008 c -0.023,5.4062 1.074,9.6445 3.289,12.7109 2.215,3.0703 5.684,4.6328 10.41,4.6875 0.707,0 1.422,-0.0469 2.141,-0.1484 0.715,-0.1016 1.406,-0.25 2.058,-0.4492 l 0.504,7.8867 c -0.554,0.1953 -1.097,0.3281 -1.636,0.3984 -0.543,0.0742 -1.063,0.1055 -1.563,0.1016 -3.89,-0.0821 -7.187,-0.9922 -9.902,-2.7227 -2.711,-1.7304 -4.613,-3.7851 -5.699,-6.164 l -0.2,0 c -0.007,1.3007 -0.043,2.5937 -0.101,3.8828 -0.055,1.2851 -0.09,2.5547 -0.098,3.8047 l -7.39,0 c 0.015,-1.5469 0.085,-3.2461 0.199,-5.0938 0.117,-1.8476 0.183,-3.8437 0.203,-5.9961 l 0,-35.6992"
         style="fill:#ffffff;fill-opacity:1;fill-rule:nonzero;stroke:none"
         id="path42" /><path
         d="m 208.758,76.8164 c 1.883,1.7031 4.039,2.9766 6.461,3.8281 2.426,0.8516 4.906,1.2774 7.441,1.2774 3.68,-0.0039 6.528,-0.8711 8.543,-2.6016 2.016,-1.7344 3.039,-4.3008 3.067,-7.7109 l 0,-1.4024 -3.004,0 c -3.985,0.086 -8.239,-0.1836 -12.762,-0.8047 -4.52,-0.621 -8.402,-2.1054 -11.645,-4.4492 -3.242,-2.3437 -4.941,-6.0586 -5.089,-11.1406 0.128,-4.5586 1.839,-8.0117 5.128,-10.3555 3.293,-2.3476 7.379,-3.5273 12.262,-3.5351 3.555,0.0429 6.625,0.8047 9.203,2.2969 2.582,1.4882 4.649,3.4531 6.203,5.8906 l 0.2,0 c -0.008,-1.0352 0.011,-2.1875 0.062,-3.4571 0.055,-1.2695 0.199,-2.4453 0.438,-3.5312 l 7.492,0 c -0.207,1.2148 -0.371,2.5273 -0.504,3.9297 -0.125,1.4023 -0.195,2.789 -0.199,4.1601 l 0,20.1016 c 0.047,6.6016 -1.492,11.5547 -4.617,14.8516 -3.129,3.2968 -8.118,4.9453 -14.969,4.9453 -3.449,0.0078 -6.801,-0.5821 -10.051,-1.7617 -3.25,-1.1758 -6.102,-2.9883 -8.551,-5.4258 l 4.891,-5.1055 z m 25.512,-13.1953 0,-3 c -0.102,-3.918 -1.301,-7.2188 -3.602,-9.9102 -2.305,-2.6875 -5.703,-4.0898 -10.207,-4.2031 -3.012,-0.0312 -5.469,0.582 -7.367,1.8399 -1.899,1.2578 -2.879,3.3476 -2.938,6.2656 0.059,3.1367 1.539,5.4258 4.438,6.8711 2.902,1.4453 6.855,2.1562 11.871,2.1367 l 7.805,0"
         style="fill:#ffffff;fill-opacity:1;fill-rule:evenodd;stroke:none"
         id="path44" /><path
         d="m 295.023,18.3242 7.786,0 0,31.086 0.203,0 c 1.492,-2.711 3.804,-4.9532 6.937,-6.7305 3.133,-1.7734 6.821,-2.6953 11.067,-2.7578 6.711,0.1484 12.246,2.5 16.613,7.0469 4.367,4.5429 6.625,10.3945 6.781,17.5468 -0.105,7.2383 -2.367,13.1133 -6.781,17.625 -4.418,4.5078 -10.356,6.8321 -17.813,6.9688 -3.406,-0.0196 -6.523,-0.7266 -9.343,-2.1211 -2.817,-1.3945 -5.305,-3.3516 -7.461,-5.8672 l -0.203,0 0,6.7891 -7.786,0 0,-69.586 z m 7.786,46.1914 c 0.062,5.0157 1.566,9.1407 4.515,12.3789 2.949,3.2383 6.981,4.9141 12.094,5.0274 5.109,-0.1133 9.141,-1.7891 12.09,-5.0274 2.949,-3.2382 4.453,-7.3632 4.515,-12.3789 -0.062,-5.0156 -1.566,-9.1406 -4.515,-12.3789 -2.949,-3.2383 -6.981,-4.914 -12.09,-5.0273 -5.117,0.1133 -9.145,1.789 -12.094,5.0273 -2.949,3.2383 -4.453,7.3633 -4.515,12.3789"
         style="fill:#ffffff;fill-opacity:1;fill-rule:evenodd;stroke:none"
         id="path46" /><path
         d="m 395.57,41.1211 7.789,0 0,22.8008 c -0.027,5.4297 1.129,9.7695 3.465,13.0117 2.336,3.2461 6.016,4.9062 11.043,4.9883 3.641,-0.043 6.34,-1.1836 8.09,-3.4258 1.754,-2.2422 2.625,-5.332 2.613,-9.2734 l 0,-28.1016 7.789,0 0,28.9023 c 0.028,5.7383 -1.398,10.3321 -4.281,13.7813 -2.883,3.4453 -7.387,5.2148 -13.512,5.3047 -3.687,-0.0899 -6.839,-0.9102 -9.453,-2.4571 -2.617,-1.5507 -4.465,-3.2929 -5.554,-5.2304 l -0.2,0 0,35.2851 -7.789,0 0,-75.5859"
         style="fill:#ffffff;fill-opacity:1;fill-rule:nonzero;stroke:none"
         id="path48" /><path
         d="m 490.906,41.1211 7.785,0 0,46.7891 -7.785,0 0,-46.7891 z m -1.801,65.0939 c 0.032,-1.68 0.567,-3.039 1.61,-4.082 1.043,-1.043 2.402,-1.582 4.086,-1.61 1.676,0.028 3.039,0.567 4.082,1.61 1.043,1.043 1.578,2.402 1.609,4.082 -0.039,1.594 -0.586,2.93 -1.648,4.008 -1.063,1.082 -2.41,1.644 -4.043,1.687 -1.637,-0.043 -2.985,-0.605 -4.047,-1.687 -1.063,-1.078 -1.609,-2.414 -1.649,-4.008"
         style="fill:#ffffff;fill-opacity:1;fill-rule:evenodd;stroke:none"
         id="path50" /><path
         d="m 592.602,81.7227 c -2.375,2.5351 -5.102,4.4023 -8.176,5.6015 -3.074,1.1992 -6.352,1.7969 -9.824,1.7852 -7.309,-0.1367 -13.141,-2.461 -17.497,-6.9688 -4.351,-4.5117 -6.585,-10.3867 -6.691,-17.625 0.102,-7.3281 2.32,-13.2265 6.656,-17.6992 4.336,-4.4726 10.18,-6.7695 17.532,-6.8945 3.429,-0.0117 6.668,0.5859 9.711,1.7969 3.046,1.2109 5.707,3.1093 7.988,5.6914 l -5.801,5.5 c -1.445,-1.9922 -3.152,-3.4571 -5.125,-4.3985 -1.969,-0.9453 -4.227,-1.4101 -6.773,-1.4023 -4.813,0.125 -8.637,1.8242 -11.461,5.1015 -2.828,3.2774 -4.274,7.3789 -4.34,12.3047 0.004,4.9258 1.324,9.0274 3.961,12.3047 2.64,3.2774 6.586,4.9766 11.84,5.1016 2.339,0.0117 4.484,-0.4375 6.425,-1.3516 1.942,-0.9101 3.735,-2.3633 5.375,-4.3515 l 6.2,5.5039"
         style="fill:#ffffff;fill-opacity:1;fill-rule:nonzero;stroke:none"
         id="path52" /><path
         d="m 746.105,41.1211 7.79,0 0,75.5859 -7.79,0 0,-35.5859 -0.199,0 c -2.156,2.5156 -4.644,4.4727 -7.465,5.8672 -2.82,1.3945 -5.933,2.1015 -9.339,2.1211 -7.461,-0.1367 -13.395,-2.461 -17.813,-6.9688 -4.414,-4.5117 -6.676,-10.3867 -6.785,-17.625 0.156,-7.1523 2.418,-13.0039 6.785,-17.5468 4.367,-4.5469 9.902,-6.8985 16.609,-7.0469 4.247,0.0625 7.934,0.9844 11.071,2.7578 3.129,1.7773 5.445,4.0195 6.937,6.7305 l 0.199,0 0,-8.2891 z m 0,23.3945 c -0.058,-5.0156 -1.562,-9.1406 -4.511,-12.3789 -2.949,-3.2383 -6.981,-4.914 -12.094,-5.0273 -5.113,0.1133 -9.145,1.789 -12.094,5.0273 -2.949,3.2383 -4.453,7.3633 -4.511,12.3789 0.058,5.0157 1.562,9.1407 4.511,12.3789 2.949,3.2383 6.981,4.9141 12.094,5.0274 5.113,-0.1133 9.145,-1.7891 12.094,-5.0274 2.949,-3.2382 4.453,-7.3632 4.511,-12.3789"
         style="fill:#ffffff;fill-opacity:1;fill-rule:evenodd;stroke:none"
         id="path54" /><path
         d="m 843.254,54.2148 c -1.82,-2.3554 -3.93,-4.125 -6.324,-5.3164 -2.399,-1.1914 -5.258,-1.7851 -8.578,-1.789 -4.321,0.1172 -7.86,1.6054 -10.618,4.4648 -2.757,2.8594 -4.324,6.375 -4.691,10.5469 l 37.801,0 0,2.4961 c -0.098,7.8047 -2.149,13.8242 -6.145,18.0586 -3.996,4.2383 -9.347,6.3828 -16.051,6.4336 -7.039,-0.1172 -12.761,-2.4063 -17.171,-6.8594 -4.411,-4.4531 -6.684,-10.3633 -6.821,-17.7344 0.02,-4.5859 0.977,-8.7265 2.875,-12.4218 1.895,-3.6954 4.61,-6.6368 8.141,-8.8204 3.531,-2.1836 7.754,-3.3007 12.68,-3.3515 4.328,-0.0391 8.195,0.6875 11.601,2.1836 3.402,1.4961 6.469,4 9.192,7.5078 l -5.891,4.6015 z m -30.211,14.4961 c 0.539,4.0079 2.137,7.1993 4.805,9.5704 2.66,2.371 6.164,3.582 10.504,3.6406 4.332,-0.0586 7.718,-1.2696 10.164,-3.6406 2.445,-2.3711 3.757,-5.5625 3.941,-9.5704 l -29.414,0"
         style="fill:#ffffff;fill-opacity:1;fill-rule:evenodd;stroke:none"
         id="path56" /><path
         d="m 896.789,48.6094 c 2.274,-3.2461 4.895,-5.5196 7.856,-6.8164 2.96,-1.2969 6.41,-1.9219 10.339,-1.8711 3.161,-0.0156 6.153,0.4687 8.981,1.4531 2.828,0.9844 5.14,2.5547 6.933,4.7188 1.793,2.1601 2.719,5 2.778,8.5195 -0.117,4.5976 -1.629,7.9062 -4.531,9.9258 -2.903,2.0234 -6.489,3.3828 -10.762,4.0781 -3.203,0.5664 -5.949,1.3594 -8.231,2.3867 -2.277,1.0313 -3.472,2.5 -3.574,4.4141 0.113,2.1992 1.11,3.832 2.988,4.9023 1.879,1.0703 3.95,1.6055 6.219,1.6016 2.301,-0.0274 4.278,-0.5469 5.926,-1.5625 1.652,-1.0156 2.977,-2.3633 3.977,-4.0391 l 6.492,4.3008 c -1.649,2.9766 -3.871,5.1406 -6.668,6.4922 -2.801,1.3515 -5.875,2.0156 -9.227,1.9961 -2.957,-0.0039 -5.762,-0.5196 -8.406,-1.5547 -2.649,-1.0313 -4.809,-2.5703 -6.488,-4.6172 -1.68,-2.043 -2.547,-4.582 -2.602,-7.6172 0.129,-4.6875 1.766,-7.918 4.906,-9.6914 3.141,-1.7734 7.004,-3.0781 11.586,-3.9141 2.61,-0.4765 4.899,-1.2226 6.879,-2.2382 1.985,-1.0157 3.024,-2.7344 3.129,-5.1641 -0.121,-2.5312 -1.226,-4.3711 -3.312,-5.5156 -2.09,-1.1446 -4.418,-1.7071 -6.993,-1.6875 -2.714,0.0234 -5.019,0.6015 -6.906,1.7265 -1.887,1.125 -3.586,2.6524 -5.094,4.5743 l -6.195,-4.8008"
         style="fill:#ffffff;fill-opacity:1;fill-rule:nonzero;stroke:none"
         id="path58" /><path
         d="m 984.219,41.1211 7.785,0 0,46.7891 -7.785,0 0,-46.7891 z m -1.801,65.0939 c 0.031,-1.68 0.566,-3.039 1.609,-4.082 1.043,-1.043 2.407,-1.582 4.086,-1.61 1.676,0.028 3.039,0.567 4.082,1.61 1.043,1.043 1.578,2.402 1.61,4.082 -0.035,1.594 -0.586,2.93 -1.649,4.008 -1.058,1.082 -2.406,1.644 -4.043,1.687 -1.636,-0.043 -2.984,-0.605 -4.047,-1.687 -1.062,-1.078 -1.609,-2.414 -1.648,-4.008"
         style="fill:#ffffff;fill-opacity:1;fill-rule:evenodd;stroke:none"
         id="path60" /><path
         d="m 1093.11,87.9102 -7.78,0 0,-7.9883 -0.2,0 c -1.65,3.0898 -4,5.3984 -7.06,6.9179 -3.05,1.5157 -6.2,2.2735 -9.45,2.2696 -7.56,-0.0664 -13.57,-2.2539 -18.03,-6.5586 -4.47,-4.3008 -6.76,-10.3164 -6.86,-18.0352 0.11,-7.039 2.43,-12.7656 6.93,-17.1718 4.5,-4.4102 10.49,-6.6836 17.96,-6.8204 3.17,-0.0156 6.24,0.6836 9.19,2.0977 2.96,1.4062 5.4,3.6055 7.32,6.5898 l 0.2,0 0,-5.9921 c 0.04,-3.3516 -0.45,-6.4532 -1.48,-9.3047 -1.03,-2.8516 -2.83,-5.1524 -5.41,-6.9024 -2.59,-1.7539 -6.19,-2.6523 -10.82,-2.7031 -3.57,0.0078 -6.76,0.6953 -9.57,2.0664 -2.8,1.3672 -5.41,3.3828 -7.83,6.0391 l -5.59,-6.4024 c 3.26,-3.2109 6.78,-5.5039 10.55,-6.8789 3.77,-1.375 7.91,-2.0469 12.44,-2.0117 8.24,0.0312 14.54,2.2695 18.9,6.7109 4.36,4.4375 6.56,10.9024 6.59,19.3868 l 0,44.6914 z m -41,-23.3946 c 0.08,5.0157 1.6,9.1407 4.58,12.3789 2.98,3.2383 6.95,4.9141 11.93,5.0274 5.03,-0.086 9.05,-1.6914 12.07,-4.8125 3.01,-3.125 4.56,-7.2578 4.64,-12.3946 -0.03,-4.6484 -1.48,-8.6054 -4.34,-11.8789 -2.87,-3.2734 -6.99,-4.9804 -12.37,-5.1289 -4.67,0.1094 -8.56,1.7227 -11.67,4.8399 -3.1,3.1211 -4.72,7.1094 -4.84,11.9687"
         style="fill:#ffffff;fill-opacity:1;fill-rule:evenodd;stroke:none"
         id="path62" /><path
         d="m 1146.57,41.1211 7.79,0 0,22.8008 c -0.02,5.4297 1.13,9.7695 3.47,13.0117 2.33,3.2461 6.02,4.9062 11.04,4.9883 3.64,-0.043 6.34,-1.1836 8.09,-3.4258 1.75,-2.2422 2.63,-5.332 2.62,-9.2734 l 0,-28.1016 7.78,0 0,28.9023 c 0.03,5.7383 -1.4,10.3321 -4.28,13.7813 -2.88,3.4453 -7.38,5.2148 -13.51,5.3047 -3.89,-0.0821 -7.19,-0.9922 -9.9,-2.7188 -2.72,-1.7343 -4.62,-3.789 -5.71,-6.1679 l -0.19,0 c -0.02,1.3007 -0.05,2.5937 -0.11,3.8828 -0.05,1.2851 -0.09,2.5547 -0.09,3.8047 l -7.39,0 c 0.01,-1.5469 0.08,-3.2422 0.2,-5.0938 0.11,-1.8476 0.18,-3.8437 0.19,-5.9961 l 0,-35.6992"
         style="fill:#ffffff;fill-opacity:1;fill-rule:nonzero;stroke:none"
         id="path64" /><path
         d="m 1298.32,17.8242 c 5.91,0.1094 10.93,1.0235 15.06,2.7422 4.13,1.7188 7.42,3.5938 9.88,5.6211 2.46,2.0234 4.15,3.5547 5.06,4.582 4.3,-3.4218 7.75,-5.9414 10.36,-7.5586 2.61,-1.6132 4.98,-2.6484 7.11,-3.1054 2.13,-0.4571 4.62,-0.6563 7.48,-0.6016 l 11.77,0 c 0.55,0.0039 1.03,0.082 1.42,0.2383 0.39,0.1523 0.59,0.3516 0.61,0.5937 0,0.3477 -0.14,0.5743 -0.43,0.6836 -0.29,0.1094 -0.7,0.1563 -1.25,0.1485 -2.24,0.0508 -4.68,0.5468 -7.32,1.4843 -2.63,0.9375 -4.95,2.004 -6.96,3.1993 -1.66,0.914 -3.85,2.2929 -6.56,4.1406 -2.71,1.8437 -6.04,4.4258 -9.98,7.7422 2.8,3.4062 5.44,7.7226 7.91,12.9492 2.47,5.2227 3.79,10.3477 3.95,15.3789 0.03,0.6094 -0.11,1.1289 -0.4,1.5586 -0.29,0.4258 -0.88,0.707 -1.75,0.8359 -3.36,0.3438 -6.23,0.5743 -8.64,0.6836 -2.39,0.1055 -4.32,0.1563 -5.76,0.1485 -0.5,0 -0.94,-0.0625 -1.32,-0.1953 -0.38,-0.129 -0.58,-0.3438 -0.6,-0.6368 0.01,-0.2968 0.17,-0.5078 0.45,-0.6406 0.29,-0.1328 0.61,-0.1953 0.99,-0.1953 0.94,0.0195 1.95,-0.1055 3.03,-0.3711 1.09,-0.2695 2.04,-0.7852 2.86,-1.5469 0.88,-0.9218 1.48,-1.9023 1.81,-2.9414 0.33,-1.039 0.49,-2.0195 0.47,-2.9414 -0.05,-3.75 -0.65,-7.414 -1.8,-11 -1.16,-3.582 -2.6,-6.5586 -4.33,-8.9258 -1.41,1.2032 -3.64,3.211 -6.68,6.0235 -3.04,2.8125 -6.09,5.6914 -9.16,8.6367 -3.06,2.9492 -5.34,5.2226 -6.84,6.8242 -6.25,6.625 -10.97,12.2656 -14.17,16.9297 -3.19,4.6641 -4.79,9.2578 -4.8,13.7891 0.19,5.5898 1.83,9.6253 4.92,12.0933 3.1,2.473 6.54,3.684 10.33,3.633 2.65,-0.047 4.98,-0.586 7,-1.605 2.01,-1.024 3.68,-2.25 5.01,-3.676 1.47,-1.598 2.46,-3.2969 2.98,-5.1055 0.52,-1.8047 0.77,-3.5039 0.74,-5.1016 -0.01,-0.8828 0.03,-1.4882 0.13,-1.8164 0.1,-0.3242 0.3,-0.4804 0.58,-0.4648 0.24,-0.0274 0.45,0.0898 0.65,0.3476 0.19,0.2579 0.37,0.8204 0.55,1.6954 0.12,0.6718 0.25,1.8632 0.37,3.5781 0.13,1.7148 0.24,3.5312 0.33,5.4452 0.08,1.918 0.13,3.512 0.14,4.781 0.02,0.703 -0.06,1.278 -0.25,1.723 -0.18,0.449 -0.62,0.875 -1.31,1.273 -1.64,0.911 -3.69,1.633 -6.17,2.168 -2.49,0.536 -5.27,0.809 -8.35,0.821 -5.38,-0.098 -9.99,-1.301 -13.83,-3.614 -3.85,-2.312 -6.79,-5.152 -8.85,-8.5191 -2.05,-3.3672 -3.09,-6.6797 -3.11,-9.9375 -0.03,-2.6641 0.39,-5.3203 1.27,-7.9687 0.88,-2.6485 2.42,-5.5157 4.6,-8.5977 -4.86,-2.7383 -9.09,-6.4883 -12.69,-11.2539 -3.6,-4.7695 -5.48,-10.6563 -5.66,-17.6602 -0.03,-3.6171 0.93,-7.4531 2.89,-11.5156 1.95,-4.0625 5.08,-7.543 9.37,-10.4453 4.28,-2.8984 9.92,-4.418 16.89,-4.5508 z m 4.2,6.3438 c -6.88,0.1367 -12.56,2.5625 -17.04,7.2773 -4.49,4.7149 -6.81,10.8906 -6.97,18.5313 0.06,4.789 1.08,8.8359 3.06,12.1523 1.98,3.3164 4.57,5.9805 7.75,8 1.86,-2.6367 4.25,-5.6289 7.17,-8.9726 2.92,-3.3477 5.24,-5.9532 6.99,-7.8165 1.13,-1.207 2.97,-3.0507 5.53,-5.5273 2.56,-2.4766 5.31,-5.0742 8.27,-7.793 2.95,-2.7187 5.6,-5.0429 7.92,-6.9687 -2.03,-2.207 -4.92,-4.2149 -8.68,-6.0156 -3.76,-1.8047 -8.43,-2.7579 -14,-2.8672"
         style="fill:#5595d6;fill-opacity:1;fill-rule:evenodd;stroke:none"
         id="path66" /><path
         d="m 1419.91,18.3242 7.79,0 0,31.086 0.19,0 c 1.5,-2.711 3.81,-4.9532 6.95,-6.7305 3.13,-1.7734 6.82,-2.6953 11.06,-2.7578 6.71,0.1484 12.25,2.5 16.61,7.0469 4.37,4.5429 6.63,10.3945 6.79,17.5468 -0.11,7.2383 -2.37,13.1133 -6.79,17.625 -4.41,4.5078 -10.35,6.8321 -17.81,6.9688 -3.41,-0.0196 -6.52,-0.7266 -9.34,-2.1211 -2.82,-1.3945 -5.31,-3.3516 -7.47,-5.8672 l -0.19,0 0,6.7891 -7.79,0 0,-69.586 z m 7.79,46.1914 c 0.05,5.0157 1.56,9.1407 4.51,12.3789 2.95,3.2383 6.98,4.9141 12.09,5.0274 5.11,-0.1133 9.15,-1.7891 12.09,-5.0274 2.95,-3.2382 4.46,-7.3632 4.52,-12.3789 -0.06,-5.0156 -1.57,-9.1406 -4.52,-12.3789 -2.94,-3.2383 -6.98,-4.914 -12.09,-5.0273 -5.11,0.1133 -9.14,1.789 -12.09,5.0273 -2.95,3.2383 -4.46,7.3633 -4.51,12.3789"
         style="fill:#ffffff;fill-opacity:1;fill-rule:evenodd;stroke:none"
         id="path68" /><path
         d="m 1520.46,41.1211 7.79,0 0,22.8008 c -0.03,5.4297 1.12,9.7695 3.46,13.0117 2.34,3.2461 6.02,4.9062 11.04,4.9883 3.64,-0.043 6.34,-1.1836 8.09,-3.4258 1.76,-2.2422 2.63,-5.332 2.62,-9.2734 l 0,-28.1016 7.79,0 0,28.9023 c 0.02,5.7383 -1.41,10.3321 -4.29,13.7813 -2.88,3.4453 -7.39,5.2148 -13.51,5.3047 -3.69,-0.0899 -6.84,-0.9102 -9.45,-2.4571 -2.62,-1.5507 -4.46,-3.2929 -5.55,-5.2304 l -0.2,0 0,35.2851 -7.79,0 0,-75.5859"
         style="fill:#ffffff;fill-opacity:1;fill-rule:nonzero;stroke:none"
         id="path70" /><path
         d="m 1612.39,64.5156 c 0.14,-7.414 2.5,-13.3398 7.09,-17.7734 4.59,-4.4336 10.56,-6.707 17.9,-6.8203 7.35,0.1133 13.32,2.3867 17.9,6.8203 4.59,4.4336 6.96,10.3594 7.1,17.7734 -0.14,7.4141 -2.51,13.3399 -7.1,17.7735 -4.58,4.4336 -10.55,6.707 -17.9,6.8203 -7.34,-0.1133 -13.31,-2.3867 -17.9,-6.8203 -4.59,-4.4336 -6.95,-10.3594 -7.09,-17.7735 z m 8.39,0 c 0.06,5.0157 1.56,9.1407 4.51,12.3789 2.95,3.2383 6.98,4.9141 12.09,5.0274 5.12,-0.1133 9.15,-1.7891 12.1,-5.0274 2.95,-3.2382 4.45,-7.3632 4.51,-12.3789 -0.06,-5.0156 -1.56,-9.1406 -4.51,-12.3789 -2.95,-3.2383 -6.98,-4.914 -12.1,-5.0273 -5.11,0.1133 -9.14,1.789 -12.09,5.0273 -2.95,3.2383 -4.45,7.3633 -4.51,12.3789"
         style="fill:#ffffff;fill-opacity:1;fill-rule:evenodd;stroke:none"
         id="path72" /><path
         d="m 1738.99,87.9102 -13.8,0 0,13.3008 -7.79,0 0,-13.3008 -10.2,0 0,-6.5899 10.2,0 0,-25.707 c -0.15,-4.8985 0.61,-8.7266 2.29,-11.4844 1.68,-2.7578 5.21,-4.1601 10.6,-4.207 1.48,-0.0039 3.02,0.1289 4.62,0.3984 1.61,0.2695 3.1,0.7031 4.48,1.2969 l -0.3,7.0937 c -1.06,-0.5507 -2.19,-0.9531 -3.38,-1.2148 -1.19,-0.2617 -2.36,-0.3906 -3.52,-0.3867 -3.31,0.0742 -5.34,1.125 -6.09,3.1523 -0.75,2.0235 -1.05,4.5742 -0.91,7.6524 l 0,23.4062 13.8,0 0,6.5899"
         style="fill:#ffffff;fill-opacity:1;fill-rule:nonzero;stroke:none"
         id="path74" /><path
         d="m 1784.88,64.5156 c 0.13,-7.414 2.5,-13.3398 7.09,-17.7734 4.58,-4.4336 10.55,-6.707 17.9,-6.8203 7.34,0.1133 13.31,2.3867 17.9,6.8203 4.59,4.4336 6.95,10.3594 7.09,17.7734 -0.14,7.4141 -2.5,13.3399 -7.09,17.7735 -4.59,4.4336 -10.56,6.707 -17.9,6.8203 -7.35,-0.1133 -13.32,-2.3867 -17.9,-6.8203 -4.59,-4.4336 -6.96,-10.3594 -7.09,-17.7735 z m 8.38,0 c 0.06,5.0157 1.56,9.1407 4.51,12.3789 2.95,3.2383 6.98,4.9141 12.1,5.0274 5.11,-0.1133 9.14,-1.7891 12.09,-5.0274 2.95,-3.2382 4.45,-7.3632 4.51,-12.3789 -0.06,-5.0156 -1.56,-9.1406 -4.51,-12.3789 -2.95,-3.2383 -6.98,-4.914 -12.09,-5.0273 -5.12,0.1133 -9.15,1.789 -12.1,5.0273 -2.95,3.2383 -4.45,7.3633 -4.51,12.3789"
         style="fill:#ffffff;fill-opacity:1;fill-rule:evenodd;stroke:none"
         id="path76" /><path
         d="m 1932.57,87.9102 -7.78,0 0,-7.9883 -0.2,0 c -1.66,3.0898 -4.01,5.3984 -7.06,6.9179 -3.05,1.5157 -6.2,2.2735 -9.45,2.2696 -7.56,-0.0664 -13.57,-2.2539 -18.04,-6.5586 -4.47,-4.3008 -6.75,-10.3164 -6.86,-18.0352 0.12,-7.039 2.43,-12.7656 6.94,-17.1718 4.5,-4.4102 10.49,-6.6836 17.96,-6.8204 3.17,-0.0156 6.23,0.6836 9.19,2.0977 2.96,1.4062 5.39,3.6055 7.32,6.5898 l 0.2,0 0,-5.9921 c 0.03,-3.3516 -0.46,-6.4532 -1.49,-9.3047 -1.02,-2.8516 -2.82,-5.1524 -5.41,-6.9024 -2.58,-1.7539 -6.19,-2.6523 -10.81,-2.7031 -3.57,0.0078 -6.76,0.6953 -9.57,2.0664 -2.8,1.3672 -5.42,3.3828 -7.84,6.0391 l -5.59,-6.4024 c 3.28,-3.2109 6.79,-5.5039 10.56,-6.8789 3.76,-1.375 7.91,-2.0469 12.44,-2.0117 8.24,0.0312 14.54,2.2695 18.9,6.7109 4.36,4.4375 6.56,10.9024 6.59,19.3868 l 0,44.6914 z m -41,-23.3946 c 0.07,5.0157 1.6,9.1407 4.58,12.3789 2.98,3.2383 6.95,4.9141 11.93,5.0274 5.03,-0.086 9.05,-1.6914 12.06,-4.8125 3.02,-3.125 4.57,-7.2578 4.65,-12.3946 -0.03,-4.6484 -1.48,-8.6054 -4.34,-11.8789 -2.87,-3.2734 -6.99,-4.9804 -12.37,-5.1289 -4.67,0.1094 -8.56,1.7227 -11.67,4.8399 -3.11,3.1211 -4.72,7.1094 -4.84,11.9687"
         style="fill:#ffffff;fill-opacity:1;fill-rule:evenodd;stroke:none"
         id="path78" /><path
         d="m 1986.04,41.1211 7.78,0 0,22.8008 c -0.02,5.4062 1.07,9.6445 3.29,12.7109 2.21,3.0703 5.68,4.6328 10.41,4.6875 0.71,0 1.42,-0.0469 2.14,-0.1484 0.72,-0.1016 1.41,-0.25 2.06,-0.4492 l 0.5,7.8867 c -0.55,0.1953 -1.09,0.3281 -1.63,0.3984 -0.55,0.0742 -1.07,0.1055 -1.57,0.1016 -3.89,-0.0821 -7.18,-0.9922 -9.9,-2.7227 -2.71,-1.7304 -4.61,-3.7851 -5.7,-6.164 l -0.2,0 c -0.01,1.3007 -0.04,2.5937 -0.1,3.8828 -0.05,1.2851 -0.09,2.5547 -0.1,3.8047 l -7.39,0 c 0.02,-1.5469 0.08,-3.2461 0.2,-5.0938 0.12,-1.8476 0.19,-3.8437 0.21,-5.9961 l 0,-35.6992"
         style="fill:#ffffff;fill-opacity:1;fill-rule:nonzero;stroke:none"
         id="path80" /><path
         d="m 2064.5,76.8164 c 1.88,1.7031 4.04,2.9766 6.46,3.8281 2.42,0.8516 4.9,1.2774 7.44,1.2774 3.68,-0.0039 6.53,-0.8711 8.54,-2.6016 2.02,-1.7344 3.04,-4.3008 3.06,-7.7109 l 0,-1.4024 -3,0 c -3.98,0.086 -8.23,-0.1836 -12.76,-0.8047 -4.52,-0.621 -8.4,-2.1054 -11.64,-4.4492 -3.24,-2.3437 -4.94,-6.0586 -5.1,-11.1406 0.14,-4.5586 1.85,-8.0117 5.14,-10.3555 3.29,-2.3476 7.38,-3.5273 12.26,-3.5351 3.56,0.0429 6.62,0.8047 9.2,2.2969 2.58,1.4882 4.65,3.4531 6.2,5.8906 l 0.21,0 c -0.02,-1.0352 0.01,-2.1875 0.06,-3.4571 0.05,-1.2695 0.2,-2.4453 0.43,-3.5312 l 7.5,0 c -0.21,1.2148 -0.37,2.5273 -0.51,3.9297 -0.13,1.4023 -0.19,2.789 -0.2,4.1601 l 0,20.1016 c 0.05,6.6016 -1.49,11.5547 -4.61,14.8516 -3.13,3.2968 -8.12,4.9453 -14.97,4.9453 -3.45,0.0078 -6.8,-0.5821 -10.05,-1.7617 -3.25,-1.1758 -6.11,-2.9883 -8.55,-5.4258 l 4.89,-5.1055 z m 25.5,-13.1953 0,-3 c -0.09,-3.918 -1.29,-7.2188 -3.59,-9.9102 -2.31,-2.6875 -5.71,-4.0898 -10.21,-4.2031 -3.01,-0.0312 -5.47,0.582 -7.37,1.8399 -1.9,1.2578 -2.88,3.3476 -2.94,6.2656 0.06,3.1367 1.54,5.4258 4.44,6.8711 2.9,1.4453 6.86,2.1562 11.87,2.1367 l 7.8,0"
         style="fill:#ffffff;fill-opacity:1;fill-rule:evenodd;stroke:none"
         id="path82" /><path
         d="m 2150.76,18.3242 7.79,0 0,31.086 0.2,0 c 1.49,-2.711 3.81,-4.9532 6.94,-6.7305 3.13,-1.7734 6.82,-2.6953 11.06,-2.7578 6.71,0.1484 12.25,2.5 16.61,7.0469 4.37,4.5429 6.63,10.3945 6.79,17.5468 -0.11,7.2383 -2.37,13.1133 -6.79,17.625 -4.41,4.5078 -10.35,6.8321 -17.81,6.9688 -3.4,-0.0196 -6.51,-0.7266 -9.34,-2.1211 -2.82,-1.3945 -5.31,-3.3516 -7.46,-5.8672 l -0.2,0 0,6.7891 -7.79,0 0,-69.586 z m 7.79,46.1914 c 0.06,5.0157 1.56,9.1407 4.51,12.3789 2.95,3.2383 6.98,4.9141 12.1,5.0274 5.11,-0.1133 9.14,-1.7891 12.09,-5.0274 2.95,-3.2382 4.45,-7.3632 4.51,-12.3789 -0.06,-5.0156 -1.56,-9.1406 -4.51,-12.3789 -2.95,-3.2383 -6.98,-4.914 -12.09,-5.0273 -5.12,0.1133 -9.15,1.789 -12.1,5.0273 -2.95,3.2383 -4.45,7.3633 -4.51,12.3789"
         style="fill:#ffffff;fill-opacity:1;fill-rule:evenodd;stroke:none"
         id="path84" /><path
         d="m 2251.31,41.1211 7.79,0 0,22.8008 c -0.03,5.4297 1.13,9.7695 3.46,13.0117 2.34,3.2461 6.02,4.9062 11.05,4.9883 3.64,-0.043 6.34,-1.1836 8.09,-3.4258 1.75,-2.2422 2.62,-5.332 2.61,-9.2734 l 0,-28.1016 7.79,0 0,28.9023 c 0.03,5.7383 -1.4,10.3321 -4.28,13.7813 -2.89,3.4453 -7.39,5.2148 -13.52,5.3047 -3.68,-0.0899 -6.84,-0.9102 -9.45,-2.4571 -2.61,-1.5507 -4.46,-3.2929 -5.55,-5.2304 l -0.2,0 0,35.2851 -7.79,0 0,-75.5859"
         style="fill:#ffffff;fill-opacity:1;fill-rule:nonzero;stroke:none"
         id="path86" /><path
         d="m 2385.73,87.9102 -8.5,0 -13.89,-36.6993 -0.2,0 -14.5,36.6993 -9.1,0 19.4,-47.1016 -3.2,-8.7969 c -0.79,-2.3359 -1.81,-4.1953 -3.08,-5.5781 -1.26,-1.3828 -3.13,-2.0898 -5.62,-2.125 -1.09,-0.0039 -2.08,0.0547 -2.97,0.1758 -0.89,0.1211 -1.73,0.3281 -2.53,0.625 l -1,-6.7852 c 1.07,-0.4883 2.23,-0.8164 3.46,-0.9765 1.23,-0.1641 2.41,-0.2383 3.54,-0.2266 4.57,0.0625 7.95,1.2891 10.16,3.6836 2.21,2.3945 4.02,5.5976 5.44,9.6055 l 22.59,57.5"
         style="fill:#ffffff;fill-opacity:1;fill-rule:nonzero;stroke:none"
         id="path88" /></g></g></svg>